<svg width="100" height="35" viewBox="0 0 100 35" fill="none" xmlns="http://www.w3.org/2000/svg">
<path fill-rule="evenodd" clip-rule="evenodd" d="M97.8728 8.1864L92.9741 20.659L88.3568 10.8937C87.9141 9.95195 87.2013 9.16317 86.3089 8.62781C84.3708 7.44546 81.7913 7.79517 79.6038 7.79517V8.56981C81.21 8.75066 82.4545 9.78351 83.3374 11.6684L90.5647 26.9307C89.8379 28.734 89.2577 30.9293 87.4332 32.005C86.3588 32.5699 85.1529 32.8374 83.9403 32.7797V34.1353C85.13 34.2068 86.3238 34.1277 87.4936 33.9001C89.8638 33.2901 91.1128 30.9528 91.8897 28.9033L100 8.17934L97.8728 8.1864Z" fill="#3592CD"/>
<path fill-rule="evenodd" clip-rule="evenodd" d="M70.8663 0.835153V26.4006H76.0857V4.96789C76.06 4.46733 76.0076 3.96849 75.9289 3.47349C75.4616 0.678359 73.2357 0.835153 70.8663 0.835153Z" fill="#3592CD"/>
<path fill-rule="evenodd" clip-rule="evenodd" d="M49.8075 0.839119V26.4046H55.0293V15.0955H60.8367C63.2187 15.0735 64.2042 13.4576 64.1689 11.3383C64.0273 11.3914 63.8822 11.4346 63.7346 11.4677C62.5767 11.7505 61.386 11.8763 60.1946 11.8417H55.0293V4.96715C55.012 4.67444 54.9859 4.38355 54.9509 4.0945H64.7828C66.561 4.04824 67.3122 2.34842 67.3122 0.840698H51.0228C50.6284 0.834426 50.2199 0.839119 49.8075 0.839119Z" fill="#3592CD"/>
<path fill-rule="evenodd" clip-rule="evenodd" d="M41.419 8.11034C40.2153 7.76911 38.9515 7.6963 37.7166 7.89708C36.4817 8.09785 35.3059 8.56732 34.2724 9.2723C34.3768 7.33437 34.3244 5.39119 34.1156 3.46173C33.6522 0.667376 31.4255 0.82731 29.0562 0.82731V26.3928H34.2756V11.0897C35.16 10.2828 36.2949 9.80421 37.4901 9.73412C40.4138 9.73412 41.1038 12.8186 41.1038 15.0798V26.3904H46.3232V14.8877C46.3177 11.6958 44.8178 8.88028 41.419 8.11034Z" fill="#3592CD"/>
<path fill-rule="evenodd" clip-rule="evenodd" d="M17.3142 12.9895V13.9578C19.457 13.9578 19.8835 15.9556 19.8835 17.6373V24.3018H19.8749V24.6107C17.0677 25.8376 13.9044 25.9756 11.001 24.998C6.36491 23.2088 5.6209 17.3794 5.6209 13.2224C5.6209 7.81242 7.88993 1.79565 14.454 1.79565C16.4296 1.68879 18.3831 2.25544 19.9949 3.40294C21.3596 4.47447 22.2965 6.19938 22.8057 8.57766H24.01C24.01 6.89745 24.0828 4.59312 22.9663 3.1936C19.6773 -0.432627 12.0924 -0.712541 7.80919 1.06333C2.72777 3.17007 0 8.0053 0 13.2263C0 21.0668 6.32497 27.1714 14.454 27.1714C18.1684 27.2702 21.8417 26.3742 25.0935 24.5762V24.5613H25.103V17.7118C25.1037 13.6379 20.7028 12.9895 17.3142 12.9895Z" fill="#3592CD"/>
</svg>
